<?xml version="1.0"?>
<svg xmlns="http://www.w3.org/2000/svg" id="Layer_1" data-name="Layer 1" viewBox="0 0 512 512" width="512" height="512"><title>Application Settings</title><path d="M318.58,371H301.87l-2.41-24.99a92.619,92.619,0,0,1-30.71-12.94l-19.27,15.95L225.7,325.24l15.96-19.27a90.017,90.017,0,0,1-12.95-30.7l-24.98-2.41V239.14l24.98-2.41a92.587,92.587,0,0,1,12.95-30.7L225.7,186.76l23.78-23.78,19.27,15.95a90.05,90.05,0,0,1,30.71-12.94L301.87,141h33.71l2.41,24.99a92.619,92.619,0,0,1,30.71,12.94l19.27-15.95,23.48,23.78-15.96,19.27a90.017,90.017,0,0,1,12.95,30.7l24.98,2.41v33.72l-24.68,2.41a92.587,92.587,0,0,1-12.95,30.7l15.96,19.27-23.78,23.78L368.7,333.07a90.05,90.05,0,0,1-30.71,12.94L335.58,371Zm65.79-115a65.645,65.645,0,1,0-65.64,65.65A65.645,65.645,0,0,0,384.37,256Z" style="fill:#6fe3ff"/><path d="M318.73,190.35A65.65,65.65,0,1,1,253.08,256,65.645,65.645,0,0,1,318.73,190.35Z" style="fill:#e2d574"/><path d="M318.58,399v32a40,40,0,0,1-40,40h-160a40,40,0,0,1-40-40V399Zm-105,36a15,15,0,1,0-15,15A15.005,15.005,0,0,0,213.58,435Z" style="fill:#e48e66"/><path d="M318.58,371v28h-240V101h240v40H301.87l-2.41,24.99a90.05,90.05,0,0,0-30.71,12.94l-19.27-15.95L225.7,186.76l15.96,19.27a92.587,92.587,0,0,0-12.95,30.7l-24.98,2.41v33.72l24.98,2.41a90.017,90.017,0,0,0,12.95,30.7L225.7,325.24l23.78,23.78,19.27-15.95a92.619,92.619,0,0,0,30.71,12.94L301.87,371Z" style="fill:#f8ec7d"/><path d="M318.58,81v20h-240V81a40,40,0,0,1,40-40h160A40,40,0,0,1,318.58,81Z" style="fill:#e48e66"/><circle cx="198.58" cy="435" r="15" style="fill:#f8ec7d"/><path d="M118.58,477h160a46.052,46.052,0,0,0,46-46V377h11a6,6,0,0,0,5.972-5.424l2-20.736a96.752,96.752,0,0,0,24.671-10.376l15.921,13.178a6,6,0,0,0,8.069-.379l23.78-23.78a6,6,0,0,0,.378-8.07l-13.216-15.956a98.713,98.713,0,0,0,10.413-24.63l20.435-2a6,6,0,0,0,5.417-5.972V239.14A6,6,0,0,0,434,233.168l-20.726-2a96.8,96.8,0,0,0-10.385-24.661l13.186-15.92a6,6,0,0,0-.352-8.043l-23.479-23.78a6,6,0,0,0-8.1-.406l-15.957,13.208a98.692,98.692,0,0,0-24.635-10.4l-2-20.739A6,6,0,0,0,335.58,135h-11V81a46.052,46.052,0,0,0-46-46h-160a46.053,46.053,0,0,0-46,46V431A46.053,46.053,0,0,0,118.58,477ZM332.018,166.566a6,6,0,0,0,4.7,5.288,86.854,86.854,0,0,1,28.726,12.118,6,6,0,0,0,7.079-.42l15.036-12.446,15.805,16.007-12.5,15.09a6,6,0,0,0-.371,7.155A84.23,84.23,0,0,1,402.576,238a6,6,0,0,0,5.288,4.7l19.556,1.887v22.828L408.157,269.3a6,6,0,0,0-5.281,4.7,86.861,86.861,0,0,1-12.128,28.716,6,6,0,0,0,.421,7.08l12.476,15.063-16.056,16.056-15.063-12.468a6,6,0,0,0-7.154-.37,84.234,84.234,0,0,1-28.651,12.068,6,6,0,0,0-4.7,5.288L330.131,365H307.319l-1.887-19.566a6,6,0,0,0-4.7-5.288A86.863,86.863,0,0,1,272,328.028a6,6,0,0,0-7.079.42l-15.063,12.468L233.805,324.86,246.281,309.8a6,6,0,0,0,.371-7.155A84.23,84.23,0,0,1,234.574,274a6,6,0,0,0-5.288-4.7l-19.556-1.887V244.589l19.556-1.887a6,6,0,0,0,5.288-4.7A86.852,86.852,0,0,1,246.7,209.283a6,6,0,0,0-.421-7.08L233.805,187.14l16.056-16.056,15.063,12.468a6,6,0,0,0,7.154.37,84.234,84.234,0,0,1,28.651-12.068,6,6,0,0,0,4.7-5.288L307.319,147h22.812ZM118.58,47h160a34.038,34.038,0,0,1,34,34V95h-14a6,6,0,0,0,0,12h14v28H301.87a6,6,0,0,0-5.972,5.424l-2,20.736a96.752,96.752,0,0,0-24.671,10.376l-15.921-13.178a6,6,0,0,0-8.069.379l-23.78,23.78a6,6,0,0,0-.378,8.07L234.3,206.543a98.751,98.751,0,0,0-10.412,24.625l-20.729,2a6,6,0,0,0-5.424,5.972v33.72a6,6,0,0,0,5.424,5.972l20.726,2a96.784,96.784,0,0,0,10.385,24.661l-13.186,15.92a6,6,0,0,0,.378,8.07l23.78,23.78a6,6,0,0,0,8.069.379l15.957-13.208a98.692,98.692,0,0,0,24.635,10.4l2,20.739A6,6,0,0,0,301.87,377h10.71v16h-228V107h163a6,6,0,1,0,0-12h-163V81A34.039,34.039,0,0,1,118.58,47Zm-34,358h228v26a34.038,34.038,0,0,1-34,34h-160a34.039,34.039,0,0,1-34-34Z" style="fill:#63316d"/><path d="M267.27,107h11.12a6,6,0,0,0,0-12H267.27a6,6,0,0,0,0,12Z" style="fill:#63316d"/><path d="M198.58,456a21,21,0,1,0-21-21A21.024,21.024,0,0,0,198.58,456Zm0-30a9,9,0,1,1-9,9A9.01,9.01,0,0,1,198.58,426Z" style="fill:#63316d"/><path d="M247.08,256a71.645,71.645,0,1,0,71.65-71.65A71.731,71.731,0,0,0,247.08,256Zm71.65-59.65A59.65,59.65,0,1,1,259.08,256,59.712,59.712,0,0,1,318.73,196.35Z" style="fill:#63316d"/><path d="M306.6,277.373a6,6,0,0,0,8.382,0l34.99-34.161a6,6,0,0,0-8.382-8.587L310.79,264.7l-15.228-14.868a6,6,0,1,0-8.383,8.586Z" style="fill:#63316d"/><path d="M179,237h-8.29a6,6,0,0,0,0,12H179a6,6,0,0,0,0-12Z" style="fill:#63316d"/><path d="M108,249h36.18a6,6,0,0,0,0-12H108a6,6,0,0,0,0,12Z" style="fill:#63316d"/><path d="M179,287H140.71a6,6,0,0,0,0,12H179a6,6,0,0,0,0-12Z" style="fill:#63316d"/><path d="M108,299h6.18a6,6,0,0,0,0-12H108a6,6,0,0,0,0,12Z" style="fill:#63316d"/><path d="M175,343a6,6,0,0,0,6,6h28a6,6,0,0,0,0-12H181A6,6,0,0,0,175,343Z" style="fill:#63316d"/><path d="M154.18,337H108a6,6,0,0,0,0,12h46.18a6,6,0,0,0,0-12Z" style="fill:#63316d"/><path d="M151,195h38a6,6,0,0,0,0-12H151a6,6,0,0,0,0,12Z" style="fill:#63316d"/><path d="M108,195h16.18a6,6,0,0,0,0-12H108a6,6,0,0,0,0,12Z" style="fill:#63316d"/></svg>
