<?xml version="1.0" encoding="iso-8859-1"?>
<!-- Generator: Adobe Illustrator 19.0.0, SVG Export Plug-In . SVG Version: 6.00 Build 0)  -->
<svg version="1.1" id="Layer_1" xmlns="http://www.w3.org/2000/svg" xmlns:xlink="http://www.w3.org/1999/xlink" x="0px" y="0px"
	 viewBox="0 0 512 512" style="enable-background:new 0 0 512 512;" xml:space="preserve">
<polyline style="fill:#38388E;" points="145.27,75.251 74.235,75.251 74.235,501.554 437.765,501.554 437.765,75.251 366.73,75.251 
	"/>
<polygon style="fill:#FFFFFF;" points="145.27,75.253 116.02,75.253 116.02,459.636 395.98,459.636 395.98,75.253 366.73,75.253 "/>
<path style="fill:#006CC4;" d="M287.339,41.785c0-17.308-14.03-31.339-31.339-31.339s-31.339,14.03-31.339,31.339"/>
<polyline style="fill:#006CC4;" points="245.293,110.767 288.317,110.767 366.73,110.767 366.73,41.785 145.27,41.785 
	145.27,110.767 179.02,110.767 "/>
<path d="M211.708,121.214h-0.136c-5.768,0-10.446-4.677-10.446-10.446s4.678-10.446,10.446-10.446h0.136
	c5.768,0,10.446,4.677,10.446,10.446S217.477,121.214,211.708,121.214z"/>
<path d="M437.765,64.806h-60.588v-23.02c0-5.769-4.678-10.446-10.446-10.446h-70.268C291.812,13.337,275.434,0,256,0
	s-35.812,13.337-40.463,31.339H145.27c-5.768,0-10.446,4.677-10.446,10.446v23.02H74.235c-5.768,0-10.446,4.677-10.446,10.446
	v426.302c0,5.769,4.678,10.446,10.446,10.446h363.53c5.768,0,10.446-4.677,10.446-10.446V75.252
	C448.211,69.482,443.535,64.806,437.765,64.806z M256,20.893c7.714,0,14.446,4.212,18.066,10.446h-36.131
	C241.554,25.104,248.288,20.893,256,20.893z M155.716,52.231h200.568v48.089H245.293c-5.768,0-10.446,4.677-10.446,10.446
	c0,5.769,4.678,10.446,10.446,10.446h121.439c5.768,0,10.446-4.677,10.446-10.446V85.699h8.357V449.19H126.467V85.699h8.357v25.069
	c0,5.769,4.678,10.446,10.446,10.446h33.751c5.768,0,10.446-4.677,10.446-10.446s-4.678-10.446-10.446-10.446h-23.305v-48.09
	H155.716z M427.319,491.107H84.681V85.698h20.893v373.938c0,5.77,4.678,10.446,10.446,10.446h279.96
	c5.768,0,10.446-4.677,10.446-10.446V85.698h20.893V491.107z"/>
<path id="SVGCleanerId_0" d="M355.24,195.319H156.76c-5.768,0-10.446-4.677-10.446-10.446s4.678-10.446,10.446-10.446H355.24
	c5.768,0,10.446,4.677,10.446,10.446S361.009,195.319,355.24,195.319z"/>
<path id="SVGCleanerId_1" d="M355.24,246.512H156.76c-5.768,0-10.446-4.677-10.446-10.446s4.678-10.446,10.446-10.446H355.24
	c5.768,0,10.446,4.677,10.446,10.446S361.009,246.512,355.24,246.512z"/>
<path id="SVGCleanerId_2" d="M355.24,297.705H156.76c-5.768,0-10.446-4.677-10.446-10.446c0-5.77,4.678-10.446,10.446-10.446H355.24
	c5.768,0,10.446,4.677,10.446,10.446C365.686,293.028,361.009,297.705,355.24,297.705z"/>
<path id="SVGCleanerId_3" d="M355.24,348.899H156.76c-5.768,0-10.446-4.677-10.446-10.446c0-5.77,4.678-10.446,10.446-10.446H355.24
	c5.768,0,10.446,4.677,10.446,10.446C365.686,344.222,361.009,348.899,355.24,348.899z"/>
<path id="SVGCleanerId_4" d="M355.24,400.092h-48.215c-5.768,0-10.446-4.677-10.446-10.446c0-5.769,4.678-10.446,10.446-10.446
	h48.215c5.768,0,10.446,4.677,10.446,10.446C365.686,395.415,361.009,400.092,355.24,400.092z"/>
<path id="SVGCleanerId_5" d="M274.735,400.092h-0.13c-5.768,0-10.446-4.677-10.446-10.446c0-5.769,4.678-10.446,10.446-10.446h0.13
	c5.768,0,10.446,4.677,10.446,10.446C285.182,395.415,280.505,400.092,274.735,400.092z"/>
<g>
	<path id="SVGCleanerId_0_1_" d="M355.24,195.319H156.76c-5.768,0-10.446-4.677-10.446-10.446s4.678-10.446,10.446-10.446H355.24
		c5.768,0,10.446,4.677,10.446,10.446S361.009,195.319,355.24,195.319z"/>
</g>
<g>
	<path id="SVGCleanerId_1_1_" d="M355.24,246.512H156.76c-5.768,0-10.446-4.677-10.446-10.446s4.678-10.446,10.446-10.446H355.24
		c5.768,0,10.446,4.677,10.446,10.446S361.009,246.512,355.24,246.512z"/>
</g>
<g>
	<path id="SVGCleanerId_2_1_" d="M355.24,297.705H156.76c-5.768,0-10.446-4.677-10.446-10.446c0-5.77,4.678-10.446,10.446-10.446
		H355.24c5.768,0,10.446,4.677,10.446,10.446C365.686,293.028,361.009,297.705,355.24,297.705z"/>
</g>
<g>
	<path id="SVGCleanerId_3_1_" d="M355.24,348.899H156.76c-5.768,0-10.446-4.677-10.446-10.446c0-5.77,4.678-10.446,10.446-10.446
		H355.24c5.768,0,10.446,4.677,10.446,10.446C365.686,344.222,361.009,348.899,355.24,348.899z"/>
</g>
<g>
	<path id="SVGCleanerId_4_1_" d="M355.24,400.092h-48.215c-5.768,0-10.446-4.677-10.446-10.446c0-5.769,4.678-10.446,10.446-10.446
		h48.215c5.768,0,10.446,4.677,10.446,10.446C365.686,395.415,361.009,400.092,355.24,400.092z"/>
</g>
<g>
	<path id="SVGCleanerId_5_1_" d="M274.735,400.092h-0.13c-5.768,0-10.446-4.677-10.446-10.446c0-5.769,4.678-10.446,10.446-10.446
		h0.13c5.768,0,10.446,4.677,10.446,10.446C285.182,395.415,280.505,400.092,274.735,400.092z"/>
</g>
<g>
</g>
<g>
</g>
<g>
</g>
<g>
</g>
<g>
</g>
<g>
</g>
<g>
</g>
<g>
</g>
<g>
</g>
<g>
</g>
<g>
</g>
<g>
</g>
<g>
</g>
<g>
</g>
<g>
</g>
</svg>
